<svg data-v-0dd9719b="" version="1.0" xmlns="http://www.w3.org/2000/svg" xmlns:xlink="http://www.w3.org/1999/xlink" width="100%" height="100%" viewBox="0 0 340.000000 250.000000" preserveAspectRatio="xMidYMid meet" color-interpolation-filters="sRGB" style="margin: auto;"> <rect data-v-0dd9719b="" x="0" y="0" width="100%" height="100%" fill="#ffffff" fill-opacity="1" class="background"></rect> <rect data-v-0dd9719b="" x="0" y="0" width="100%" height="100%" fill="url(#watermark)" fill-opacity="1" class="watermarklayer"></rect> <g data-v-0dd9719b="" fill="#144579" class="icon-text-wrapper icon-svg-group iconsvg" transform="translate(49.5,95)"><g class="iconsvg-imagesvg" transform="translate(0,0)"><g><rect fill="#144579" fill-opacity="0" stroke-width="2" x="0" y="0" width="60" height="60" class="image-rect"></rect> <svg filter="url(#colors9921152353)" x="0" y="0" width="60" height="60" filtersec="colorsf5153419355" class="image-svg-svg primary" style="overflow: visible;"><svg xmlns="http://www.w3.org/2000/svg" viewBox="0 0 87 87"><path d="M43.5 43.5c-3.2 1.9-7.3.7-9.2-2.5l-14-24.3c-1.9-3.2-.7-7.3 2.5-9.2C26 5.7 30.1 6.8 32 10l4.8 8.4m-11.7 6.7l-8.4-4.8c-3.2-1.9-7.3-.7-9.2 2.5C5.7 26 6.8 30.1 10 32l24.3 14c3.2 1.9 7.3.7 9.2-2.5m-25.1-6.7H8.7a6.7 6.7 0 0 0 0 13.4h28.1c3.7 0 6.7-3 6.7-6.7m-25.1 6.7L10 55.1c-3.2 1.9-4.3 6-2.5 9.2 1.9 3.2 6 4.3 9.2 2.5l24.3-14c3.2-1.9 4.3-6 2.5-9.2M25.1 61.9l-4.8 8.4c-1.9 3.2-.7 7.3 2.5 9.2 3.2 1.9 7.3.7 9.2-2.5l14-24.3c1.9-3.2.7-7.3-2.5-9.2m-6.7 25.1v9.7a6.7 6.7 0 0 0 13.4 0V50.2c0-3.7-3-6.7-6.7-6.7m6.7 25.1L55 77c1.9 3.2 6 4.3 9.2 2.5 3.2-1.9 4.3-6 2.5-9.2L52.7 46c-1.9-3.2-6-4.3-9.2-2.5m18.4 18.4l8.4 4.8c3.2 1.9 7.3.7 9.2-2.5 1.9-3.2.7-7.3-2.5-9.2L52.7 41c-3.2-1.9-7.3-.7-9.2 2.5m25.1 6.7h9.7a6.7 6.7 0 0 0 0-13.4H50.2c-3.7 0-6.7 3-6.7 6.7m25.1-6.7L77 32c3.2-1.9 4.3-6 2.5-9.2-1.9-3.2-6-4.3-9.2-2.5L46 34.3c-3.2 1.9-4.3 6-2.5 9.2m18.4-18.4l4.8-8.4c1.9-3.2.7-7.3-2.5-9.2C61 5.6 56.9 6.8 55 10L41 34.3c-1.9 3.2-.7 7.3 2.5 9.2m6.7-25.1V8.7a6.7 6.7 0 0 0-13.4 0v28.1c0 3.7 3 6.7 6.7 6.7" fill="none" stroke="#333" stroke-width="4" stroke-miterlimit="10"></path></svg></svg> <defs><filter id="colors9921152353"><feColorMatrix type="matrix" values="0 0 0 0 0.078125  0 0 0 0 0.26953125  0 0 0 0 0.47265625  0 0 0 1 0" class="icon-fecolormatrix"></feColorMatrix></filter> <filter id="colorsf5153419355"><feColorMatrix type="matrix" values="0 0 0 0 0.99609375  0 0 0 0 0.99609375  0 0 0 0 0.99609375  0 0 0 1 0" class="icon-fecolormatrix"></feColorMatrix></filter> <filter id="colorsb7955245625"><feColorMatrix type="matrix" values="0 0 0 0 0  0 0 0 0 0  0 0 0 0 0  0 0 0 1 0" class="icon-fecolormatrix"></feColorMatrix></filter></defs></g></g> <g transform="translate(67,15.729999542236328)"><g data-gra="path-name" fill-rule="" class="tp-name iconsvg-namesvg"><g transform="scale(1)"><g><path d="M24.74-28.02Q25.89-28.02 26.56-27.33 27.23-26.64 27.23-25.49L27.23-25.49 27.23-2.33Q27.23-1.18 26.54-0.47 25.85 0.24 24.74 0.24L24.74 0.24Q23.6 0.24 22.93-0.47 22.26-1.18 22.26-2.33L22.26-2.33 22.26-12.08 8.01-12.08 8.01-2.33Q8.01-1.18 7.32-0.47 6.63 0.24 5.49 0.24L5.49 0.24Q4.38 0.24 3.69-0.47 3-1.18 3-2.33L3-2.33 3-25.49Q3-26.64 3.67-27.33 4.34-28.02 5.49-28.02L5.49-28.02Q6.63-28.02 7.32-27.33 8.01-26.64 8.01-25.49L8.01-25.49 8.01-16.18 22.26-16.18 22.26-25.49Q22.26-26.64 22.93-27.33 23.6-28.02 24.74-28.02L24.74-28.02ZM45.62 0.36Q41.56 0.36 38.58-1.38 35.6-3.12 33.98-6.35 32.36-9.59 32.36-13.93L32.36-13.93Q32.36-18.27 33.96-21.49 35.56-24.71 38.56-26.44 41.56-28.18 45.62-28.18L45.62-28.18Q49.69-28.18 52.67-26.44 55.65-24.71 57.24-21.49 58.84-18.27 58.84-13.93L58.84-13.93Q58.84-9.59 57.22-6.35 55.61-3.12 52.63-1.38 49.65 0.36 45.62 0.36L45.62 0.36ZM45.62-3.71Q49.45-3.71 51.6-6.35 53.75-9 53.75-13.93L53.75-13.93Q53.75-18.86 51.6-21.49 49.45-24.11 45.62-24.11L45.62-24.11Q41.75-24.11 39.6-21.49 37.45-18.86 37.45-13.93L37.45-13.93Q37.45-9 39.6-6.35 41.75-3.71 45.62-3.71L45.62-3.71ZM85.05-28.02Q86.15-28.02 86.8-27.33 87.45-26.64 87.45-25.49L87.45-25.49 87.45-2.33Q87.45-1.18 86.78-0.47 86.11 0.24 85.05 0.24L85.05 0.24Q83.78 0.24 83.11-0.67L83.11-0.67 68.71-19.42 68.71-2.33Q68.71-1.18 68.08-0.47 67.45 0.24 66.34 0.24L66.34 0.24Q65.24 0.24 64.6-0.47 63.97-1.18 63.97-2.33L63.97-2.33 63.97-25.49Q63.97-26.64 64.64-27.33 65.31-28.02 66.42-28.02L66.42-28.02Q67.64-28.02 68.31-27.11L68.31-27.11 82.68-8.45 82.68-25.49Q82.68-26.64 83.33-27.33 83.98-28.02 85.05-28.02L85.05-28.02ZM114.65-15.04Q115.55-15.04 116.11-14.5 116.66-13.97 116.66-13.1L116.66-13.1 116.66-4.62Q116.66-2.8 116.19-2.05 115.71-1.3 114.25-0.83L114.25-0.83Q112.67-0.28 110.58 0.04 108.49 0.36 106.56 0.36L106.56 0.36Q102.25 0.36 99.1-1.34 95.94-3.04 94.26-6.26 92.58-9.47 92.58-13.93L92.58-13.93Q92.58-18.31 94.26-21.53 95.94-24.74 99.02-26.46 102.1-28.18 106.28-28.18L106.28-28.18Q111.84-28.18 115.4-25.18L115.4-25.18Q115.87-24.74 116.09-24.31 116.3-23.88 116.3-23.28L116.3-23.28Q116.3-22.42 115.83-21.82 115.36-21.23 114.69-21.23L114.69-21.23Q114.25-21.23 113.9-21.37 113.54-21.51 113.07-21.82L113.07-21.82Q111.33-23.05 109.83-23.54 108.33-24.03 106.44-24.03L106.44-24.03Q102.14-24.03 99.95-21.49 97.75-18.94 97.75-13.93L97.75-13.93Q97.75-3.67 106.75-3.67L106.75-3.67Q109.44-3.67 112.12-4.42L112.12-4.42 112.12-11.41 107.66-11.41Q106.71-11.41 106.18-11.88 105.65-12.35 105.65-13.22L105.65-13.22Q105.65-14.09 106.18-14.56 106.71-15.04 107.66-15.04L107.66-15.04 114.65-15.04ZM130.98 0.2Q129.8 0.2 129.11-0.49 128.42-1.18 128.42-2.33L128.42-2.33 128.42-23.64 121.24-23.64Q118.87-23.64 118.87-25.73L118.87-25.73Q118.87-27.82 121.24-27.82L121.24-27.82 140.69-27.82Q143.06-27.82 143.06-25.73L143.06-25.73Q143.06-23.64 140.69-23.64L140.69-23.64 133.51-23.64 133.51-2.33Q133.51-1.18 132.82-0.49 132.13 0.2 130.98 0.2L130.98 0.2ZM167.84-3.04Q168.08-2.53 168.08-2.01L168.08-2.01Q168.08-1.11 167.35-0.47 166.62 0.16 165.67 0.16L165.67 0.16Q165.04 0.16 164.49-0.18 163.94-0.51 163.62-1.22L163.62-1.22 161.25-6.51 147.36-6.51 144.99-1.22Q144.68-0.51 144.13-0.18 143.57 0.16 142.9 0.16L142.9 0.16Q142 0.16 141.25-0.47 140.5-1.11 140.5-2.01L140.5-2.01Q140.5-2.53 140.73-3.04L140.73-3.04 151.62-26.44Q151.98-27.23 152.71-27.65 153.44-28.06 154.27-28.06L154.27-28.06Q155.1-28.06 155.83-27.65 156.56-27.23 156.91-26.44L156.91-26.44 167.84-3.04ZM154.31-22.18L149.1-10.46 159.52-10.46 154.31-22.18ZM174.44 0.24Q173.29 0.24 172.6-0.47 171.91-1.18 171.91-2.33L171.91-2.33 171.91-25.49Q171.91-26.64 172.6-27.33 173.29-28.02 174.44-28.02L174.44-28.02Q175.62-28.02 176.31-27.33 177-26.64 177-25.49L177-25.49 177-2.33Q177-1.18 176.31-0.47 175.62 0.24 174.44 0.24L174.44 0.24Z" transform="translate(-3, 28.18000030517578)"></path></g> <!----> <!----> <!----> <!----> <!----> <!----> <!----></g></g> <!----></g></g><defs v-gra="od"></defs></svg>